HIERARCHY
ROOT Hips
{
	OFFSET -0.001795 -0.223333 0.028219
	CHANNELS 6 Xposition Yposition Zposition Zrotation Yrotation Xrotation 
	JOINT LeftUpLeg
	{
		OFFSET 0.069520 -0.091406 -0.006815
		CHANNELS 3 Zrotation Yrotation Xrotation
		JOINT LeftLeg
		{
			OFFSET 0.034277 -0.375199 -0.004496
			CHANNELS 3 Zrotation Yrotation Xrotation
			JOINT LeftFoot
			{
				OFFSET -0.013596 -0.397961 -0.043693
				CHANNELS 3 Zrotation Yrotation Xrotation
				JOINT LeftToe
				{
					OFFSET 0.026358 -0.055791 0.119288
					CHANNELS 3 Zrotation Yrotation Xrotation
					End Site
					{
						OFFSET 0.000000 0.000000 0.000000
					}
				}
			}
		}
	}
	JOINT RightUpLeg
	{
		OFFSET -0.067670 -0.090522 -0.004320
		CHANNELS 3 Zrotation Yrotation Xrotation
		JOINT RightLeg
		{
			OFFSET -0.038290 -0.382569 -0.008850
			CHANNELS 3 Zrotation Yrotation Xrotation
			JOINT RightFoot
			{
				OFFSET 0.015774 -0.398415 -0.042312
				CHANNELS 3 Zrotation Yrotation Xrotation
				JOINT RightToe
				{
					OFFSET -0.025372 -0.048144 0.123348
					CHANNELS 3 Zrotation Yrotation Xrotation
					End Site
					{
						OFFSET 0.000000 0.000000 0.000000
					}
				}
			}
		}
	}
	JOINT Spine
	{
		OFFSET -0.002533 0.108963 -0.026696
		CHANNELS 3 Zrotation Yrotation Xrotation
		JOINT Spine1
		{
			OFFSET 0.005487 0.135180 0.001092
			CHANNELS 3 Zrotation Yrotation Xrotation
			JOINT Spine2
			{
				OFFSET 0.001457 0.052922 0.025425
				CHANNELS 3 Zrotation Yrotation Xrotation
				JOINT Neck
				{
					OFFSET -0.002778 0.213870 -0.042857
					CHANNELS 3 Zrotation Yrotation Xrotation
					JOINT Head
					{
						OFFSET 0.005152 0.064970 0.051349
						CHANNELS 3 Zrotation Yrotation Xrotation
						End Site
						{
							OFFSET 0.000000 0.000000 0.000000
						}
					}
				}
				JOINT LeftShoulder
				{
					OFFSET 0.078845 0.121749 -0.034090
					CHANNELS 3 Zrotation Yrotation Xrotation
					JOINT LeftArm
					{
						OFFSET 0.090977 0.030469 -0.008868
						CHANNELS 3 Zrotation Yrotation Xrotation
						JOINT LeftForeArm
						{
							OFFSET 0.259612 -0.012772 -0.027456
							CHANNELS 3 Zrotation Yrotation Xrotation
							JOINT LeftHand
							{
								OFFSET 0.249234 0.008986 -0.001171
								CHANNELS 3 Zrotation Yrotation Xrotation
								End Site
								{
									OFFSET 0.000000 0.000000 0.000000
								}
							}
						}
					}
				}
				JOINT RightShoulder
				{
					OFFSET -0.081759 0.118833 -0.038615
					CHANNELS 3 Zrotation Yrotation Xrotation
					JOINT RightArm
					{
						OFFSET -0.096012 0.032551 -0.009143
						CHANNELS 3 Zrotation Yrotation Xrotation
						JOINT RightForeArm
						{
							OFFSET -0.253742 -0.013329 -0.021401
							CHANNELS 3 Zrotation Yrotation Xrotation
							JOINT RightHand
							{
								OFFSET -0.255298 0.007772 -0.005559
								CHANNELS 3 Zrotation Yrotation Xrotation
								End Site
								{
									OFFSET 0.000000 0.000000 0.000000
								}
							}
						}
					}
				}
			}
		}
	}
}
MOTION
Frames: 7
Frame Time: 0.050000
0.000000 0.897552 0.000000 -0.022757 25.195114 -3.622318 -3.122515 0.657037 8.004890 1.508694 -2.078853 18.896483 7.651371 8.456487 -9.964008 0.000000 0.000000 0.000000 -4.915545 -1.033455 -31.693810 8.216667 -7.436871 39.588500 -6.099341 -14.426707 0.776264 0.000000 0.000000 0.000000 4.712493 -1.434442 13.377511 -9.527734 3.293641 -24.678199 -1.974589 -10.454022 20.918999 4.919863 -0.893477 -23.298039 0.000000 0.000000 0.000000 -14.917700 -12.711039 4.214773 -40.729013 -23.620425 1.259015 10.633863 -67.236961 -4.581413 0.000000 0.000000 0.000000 23.881929 -0.685694 -0.127766 55.012469 -0.283246 -7.902124 10.414964 40.732549 6.543267 0.000000 0.000000 0.000000 
0.022806 0.908330 0.081671 0.025608 24.430540 -2.618956 -0.656598 0.496824 12.179387 -1.374479 -1.123067 17.056384 4.526374 9.192388 2.066613 0.000000 0.000000 0.000000 -4.753454 -0.946572 -32.526425 10.418693 -5.125438 25.068876 -8.486548 -17.645835 13.875029 0.000000 0.000000 0.000000 5.879643 -1.156982 10.290075 -11.373538 3.185530 -27.583953 -1.830052 -13.230182 23.354713 2.133004 0.081888 -21.024704 0.000000 0.000000 0.000000 -10.196532 -14.141943 5.373819 -41.176200 -27.269756 2.086462 32.027244 -67.354354 -17.872547 0.000000 0.000000 0.000000 20.849358 -3.317367 -2.314485 56.729407 -4.714807 -10.135758 13.478688 36.563106 6.559086 0.000000 0.000000 0.000000 
0.045182 0.910858 0.162350 0.191876 20.292015 -1.046538 1.436027 0.317345 11.780210 -4.601384 -0.647480 21.618853 -1.018700 7.522034 18.349038 0.000000 0.000000 0.000000 -2.891104 0.291936 -31.428904 9.722181 -2.988719 15.426034 -10.564955 -19.970939 24.925725 0.000000 0.000000 0.000000 8.074355 -0.832786 6.003211 -11.284933 2.845145 -29.680917 -2.785829 -9.912086 27.425082 1.986167 0.551931 -23.536266 0.000000 0.000000 0.000000 -6.643725 -15.073549 5.506933 -36.063488 -31.647932 2.487358 38.911901 -62.969185 -21.202792 0.000000 0.000000 0.000000 17.099359 -4.155970 -2.239520 58.086322 -7.508884 -11.808581 12.832755 33.228499 5.786811 0.000000 0.000000 0.000000 
0.064011 0.904700 0.236036 0.738479 18.957027 -2.125826 3.475847 0.060300 10.438918 -8.278189 -0.176987 29.963430 -2.682988 9.033803 31.418322 0.000000 0.000000 0.000000 -1.761107 0.809513 -30.582779 7.778524 -2.780976 19.704513 -14.412723 -24.793142 28.687222 0.000000 0.000000 0.000000 9.658916 -0.848292 5.378395 -13.806064 3.305753 -29.080847 -1.375562 -10.617699 26.543273 1.309899 0.637142 -22.397250 0.000000 0.000000 0.000000 -2.848181 -16.046356 5.692189 -32.502085 -35.931247 3.193541 44.352934 -57.321579 -21.895686 0.000000 0.000000 0.000000 18.839637 -3.557711 -2.415260 56.075421 -9.078691 -12.097835 11.610263 31.959474 4.973960 0.000000 0.000000 0.000000 
0.079516 0.900489 0.296912 0.391795 18.464763 -4.353753 6.003838 -0.233573 7.118824 -11.770608 0.470026 39.212738 -0.481737 12.140208 37.700534 0.000000 0.000000 0.000000 -0.108426 1.365962 -28.228778 5.031397 -2.647641 27.324505 -14.960731 -26.563222 24.102785 0.000000 0.000000 0.000000 9.883560 -1.415866 9.511679 -12.282075 2.909603 -31.077202 -1.925982 -10.584398 27.124866 1.937872 0.151305 -22.381617 0.000000 0.000000 0.000000 0.640578 -18.603136 6.118545 -24.047507 -39.291837 2.191432 47.167872 -46.996187 -19.146723 0.000000 0.000000 0.000000 22.489795 -3.213954 -2.503196 52.484878 -7.646476 -10.995046 7.672298 28.691712 3.378671 0.000000 0.000000 0.000000 
0.092044 0.909580 0.343770 0.364793 15.924827 -4.974174 6.290381 -0.204586 3.014874 -13.845516 1.674064 41.861658 4.161797 15.989329 35.696658 0.000000 0.000000 0.000000 0.888650 1.781053 -25.181713 4.144580 -2.254766 29.355298 -12.430589 -24.057101 20.572520 0.000000 0.000000 0.000000 10.224496 -1.634275 10.953064 -11.334116 2.986110 -29.723706 -1.377491 -11.445526 25.416928 0.375170 0.678651 -20.967853 0.000000 0.000000 0.000000 1.720957 -20.090816 6.472887 -15.491159 -39.608664 0.643538 44.183168 -37.206999 -13.650329 0.000000 0.000000 0.000000 22.963766 -0.809796 -1.963486 50.780608 -6.346933 -9.817834 4.623586 27.268723 2.268861 0.000000 0.000000 0.000000 
0.102424 0.924403 0.380621 0.947094 13.052229 -4.454981 5.305803 -0.224583 -1.335887 -12.023597 1.485531 40.914835 6.503426 15.908245 14.050956 0.000000 0.000000 0.000000 0.386635 1.708154 -21.980794 4.359212 -1.889078 27.953584 -9.539189 -20.311940 18.649208 0.000000 0.000000 0.000000 10.399691 -1.636807 11.095206 -11.342427 2.976934 -30.011250 -0.635988 -11.172456 25.856965 -0.620464 1.015648 -19.777924 0.000000 0.000000 0.000000 4.829556 -20.270589 5.956324 -9.441211 -41.082852 -0.517374 40.356435 -27.436674 -8.802142 0.000000 0.000000 0.000000 22.680165 -0.356584 -2.157161 51.490998 -5.453165 -9.564369 3.674620 27.280790 1.983565 0.000000 0.000000 0.000000 
